#!OML:ASF X:\für Bonn\!DataBase\2005_08_11_Bastian_Final\c3d\Bastian.ASF
:FULLY-SPECIFIED
:DEGREES
95
root -0.260455 6.16123 6.20772 167.094 -6.34122 -174.675
lowerback 28.8809 -1.59154 2.75626
upperback 5.5439 -2.53151 0.506984
thorax -9.77125 -1.82223 -0.0049964
lowerneck -10.7059 -7.32851 -3.16893
upperneck -9.63402 -10.4366 11.5805
head -0.41476 -5.76681 3.97074
rclavicle 6.65929e-015 -3.69739e-014
rhumerus 67.0642 4.71622 5.03469
rradius 39.1929
rwrist -57.449
rhand -42.783 -7.41511
rfingers 7.12502
rthumb -15.6493 -36.8022
lclavicle 6.65929e-015 -3.69739e-014
lhumerus 63.558 -8.43941 -14.7963
lradius 32.4685
lwrist 10.5218
lhand -42.3606 12.9412
lfingers 7.12502
lthumb -15.2425 42.3596
rfemur 70.4232 -68.3284 -110.581
rtibia 163.43
rfoot -58.8407 -4.4213
rtoes 7.42923
lfemur -62.2063 62.8275 6.38284
ltibia 165.187
lfoot -44.6456 -33.288
ltoes 8.28155
96
root -0.258047 6.16087 6.21163 167.096 -6.3404 -174.651
lowerback 28.9951 -1.58177 2.77664
upperback 5.6012 -2.53101 0.479429
thorax -9.76421 -1.82984 -0.0443645
lowerneck -10.6797 -7.28792 -3.04568
upperneck -9.72822 -10.4021 11.6025
head -0.45837 -5.76338 3.96291
rclavicle 5.1684e-015 6.75868e-015
rhumerus 67.0204 4.67499 5.53319
rradius 39.3127
rwrist -57.3746
rhand -42.9823 -7.79238
rfingers 7.12502
rthumb -15.8414 -37.1643
lclavicle 5.1684e-015 6.75868e-015
lhumerus 63.6015 -8.40758 -13.8819
lradius 32.2111
lwrist 9.66059
lhand -42.476 12.9062
lfingers 7.12502
lthumb -15.3536 42.3162
rfemur 71.1179 -68.0537 -111.162
rtibia 163.442
rfoot -58.9186 -4.48111
rtoes 7.63752
lfemur -62.488 63.0183 6.17947
ltibia 165.184
lfoot -44.5763 -33.2053
ltoes 8.13128
97
root -0.25482 6.17185 6.2157 167.125 -6.3512 -174.609
lowerback 29.0397 -1.58173 2.80496
upperback 5.67562 -2.54259 0.46906
thorax -9.70259 -1.84343 -0.0679242
lowerneck -10.7089 -7.25451 -2.97528
upperneck -9.8062 -10.3741 11.6327
head -0.483381 -5.76034 3.9639
rclavicle 1.09332e-015 -1.59028e-014
rhumerus 67.011 4.59759 5.97439
rradius 39.4002
rwrist -57.371
rhand -43.1037 -8.0741
rfingers 7.12502
rthumb -15.9583 -37.4367
lclavicle 1.09332e-015 -1.59028e-014
lhumerus 63.6195 -8.38052 -13.0793
lradius 31.9987
lwrist 9.05277
lhand -42.6184 12.6837
lfingers 7.12502
lthumb -15.4909 42.0831
rfemur 71.8611 -67.7366 -111.828
rtibia 163.359
rfoot -59.0722 -4.30864
rtoes 7.96121
lfemur -62.8013 63.1448 5.87623
ltibia 165.098
lfoot -44.5277 -33.0566
ltoes 7.98157
98
root -0.250728 6.19952 6.22079 167.165 -6.3671 -174.571
lowerback 29.0738 -1.57969 2.83333
upperback 5.74408 -2.54974 0.460591
thorax -9.64244 -1.85418 -0.091322
lowerneck -10.7457 -7.22826 -2.93696
upperneck -9.86527 -10.3516 11.6927
head -0.496763 -5.75794 3.97964
rclavicle 6.4605e-015 -5.56597e-015
rhumerus 67.0329 4.51393 5.93444
rradius 39.3492
rwrist -56.9886
rhand -43.0012 -8.31901
rfingers 7.12502
rthumb -15.8595 -37.6895
lclavicle 6.4605e-015 -5.56597e-015
lhumerus 63.6768 -8.46741 -12.7013
lradius 31.9011
lwrist 8.95524
lhand -42.8559 12.5121
lfingers 7.12502
lthumb -15.7195 41.8936
rfemur 72.102 -67.7653 -111.957
rtibia 163.144
rfoot -59.214 -4.1191
rtoes 8.12177
lfemur -62.9955 63.124 5.51584
ltibia 164.879
lfoot -44.6304 -32.783
ltoes 7.52837
99
root -0.245756 6.24744 6.22643 167.218 -6.38942 -174.561
lowerback 29.0865 -1.57113 2.82517
upperback 5.80448 -2.55653 0.457299
thorax -9.57959 -1.86255 -0.0887538
lowerneck -10.7714 -7.20077 -2.90924
upperneck -9.90838 -10.3231 11.7229
head -0.50848 -5.74976 3.98724
rclavicle -1.67973e-014 -5.96354e-015
rhumerus 67.0818 4.45367 5.6535
rradius 39.2431
rwrist -56.5977
rhand -42.8689 -8.39379
rfingers 7.12502
rthumb -15.7321 -37.7744
lclavicle -1.67973e-014 -5.96354e-015
lhumerus 63.7302 -8.60824 -12.46
lradius 31.881
lwrist 9.09773
lhand -43.1184 12.2606
lfingers 7.12502
lthumb -15.9723 41.6221
rfemur 71.5176 -68.2298 -111.278
rtibia 162.766
rfoot -59.4116 -3.69807
rtoes 8.3278
lfemur -62.9883 62.8922 5.14537
ltibia 164.506
lfoot -44.8224 -32.5341
ltoes 7.18349
100
root -0.239391 6.31457 6.23325 167.298 -6.42673 -174.518
lowerback 29.0788 -1.5717 2.85792
upperback 5.86173 -2.56175 0.451722
thorax -9.51156 -1.87047 -0.113718
lowerneck -10.8562 -7.1941 -2.87074
upperneck -9.90418 -10.3262 11.7721
head -0.491669 -5.75468 3.99305
rclavicle -2.28602e-015 -2.38542e-015
rhumerus 67.1079 4.38612 5.20806
rradius 39.1144
rwrist -56.2605
rhand -42.6843 -8.27444
rfingers 7.12502
rthumb -15.5543 -37.6689
lclavicle -2.28602e-015 -2.38542e-015
lhumerus 63.8173 -8.70054 -11.9653
lradius 31.7671
lwrist 8.83815
lhand -43.2989 12.0393
lfingers 7.12502
lthumb -16.1462 41.3867
rfemur 69.7245 -69.4949 -109.24
rtibia 162.224
rfoot -59.5259 -3.1147
rtoes 8.48841
lfemur -63.1947 62.2104 4.46914
ltibia 163.973
lfoot -45.0263 -32.1963
ltoes 6.50888
101
root -0.232519 6.39927 6.24103 167.381 -6.45979 -174.513
lowerback 29.0936 -1.57283 2.86727
upperback 5.90732 -2.57371 0.42698
thorax -9.46852 -1.88034 -0.143088
lowerneck -10.9068 -7.17865 -2.85025
upperneck -9.92536 -10.3154 11.8508
head -0.487147 -5.75486 4.01577
rclavicle -1.00386e-014 9.14409e-015
rhumerus 67.1613 4.36331 4.81385
rradius 39.0199
rwrist -56.1665
rhand -42.6021 -8.05487
rfingers 7.12502
rthumb -15.4752 -37.4555
lclavicle -1.00386e-014 9.14409e-015
lhumerus 63.8819 -8.74902 -11.0333
lradius 31.5548
lwrist 8.12641
lhand -43.3884 11.766
lfingers 7.12502
lthumb -16.2324 41.1064
rfemur 66.3817 -71.216 -105.708
rtibia 161.54
rfoot -59.6192 -2.29896
rtoes 8.74479
lfemur -63.047 61.3298 3.9448
ltibia 163.3
lfoot -45.4586 -31.8684
ltoes 5.79172
102
root -0.225571 6.49838 6.24989 167.484 -6.49568 -174.501
lowerback 29.1074 -1.57163 2.85365
upperback 5.94303 -2.58387 0.441463
thorax -9.4336 -1.88793 -0.115538
lowerneck -10.9632 -7.16114 -2.86315
upperneck -9.94109 -10.2957 11.881
head -0.481776 -5.74711 4.02777
rclavicle 1.56046e-014 -3.97569e-016
rhumerus 67.2253 4.35496 4.54699
rradius 39.0014
rwrist -56.1679
rhand -42.575 -7.81184
rfingers 7.12502
rthumb -15.449 -37.2145
lclavicle 1.56046e-014 -3.97569e-016
lhumerus 63.9032 -8.78519 -9.97693
lradius 31.293
lwrist 7.1475
lhand -43.4024 11.4997
lfingers 7.12502
lthumb -16.2458 40.839
rfemur 60.6731 -73.429 -99.7332
rtibia 160.737
rfoot -59.5783 -1.40072
rtoes 8.92199
lfemur -62.875 60.2193 3.38594
ltibia 162.512
lfoot -45.9504 -31.5277
ltoes 4.88388
103
root -0.217928 6.61181 6.25998 167.586 -6.54887 -174.47
lowerback 29.1363 -1.5833 2.88033
upperback 5.9724 -2.59864 0.43544
thorax -9.41573 -1.89831 -0.131799
lowerneck -10.9737 -7.14523 -2.86087
upperneck -9.99393 -10.2801 11.9521
head -0.4943 -5.74623 4.05456
rclavicle 5.35725e-014 -1.70955e-014
rhumerus 67.2488 4.39238 4.49274
rradius 39.0581
rwrist -56.4343
rhand -42.7172 -7.47172
rfingers 7.12502
rthumb -15.586 -36.8637
lclavicle 5.35725e-014 -1.70955e-014
lhumerus 63.9953 -9.0084 -10.0533
lradius 31.308
lwrist 7.0568
lhand -43.5376 11.649
lfingers 7.12502
lthumb -16.376 40.9777
rfemur 51.1377 -75.807 -89.8217
rtibia 159.808
rfoot -59.4534 -0.420483
rtoes 9.0076
lfemur -62.7228 58.74 2.76107
ltibia 161.6
lfoot -46.3899 -31.2579
ltoes 4.00423
104
root -0.210618 6.73757 6.27363 167.771 -6.59848 -174.468
lowerback 29.1406 -1.5976 2.89056
upperback 5.96656 -2.61363 0.410469
thorax -9.42657 -1.90456 -0.160094
lowerneck -10.9968 -7.12047 -2.78544
upperneck -10.0388 -10.2617 11.9743
head -0.509465 -5.74532 4.05037
rclavicle 4.48259e-014 -3.53837e-014
rhumerus 67.2466 4.46452 4.57364
rradius 39.1687
rwrist -56.7
rhand -42.9657 -7.21704
rfingers 7.12502
rthumb -15.8253 -36.5902
lclavicle 4.48259e-014 -3.53837e-014
lhumerus 64.1231 -9.37558 -11.0128
lradius 31.5412
lwrist 7.62115
lhand -43.7837 12.1323
lfingers 7.12502
lthumb -16.613 41.4413
rfemur 33.4314 -78.158 -71.6661
rtibia 158.795
rfoot -59.0279 0.493891
rtoes 9.04883
lfemur -62.8841 56.8458 1.75416
ltibia 160.588
lfoot -46.685 -30.9396
ltoes 3.01966
105
root -0.203535 6.87606 6.29196 168.041 -6.65291 -174.481
lowerback 29.1231 -1.61456 2.87385
upperback 5.92969 -2.63011 0.404573
thorax -9.46048 -1.90751 -0.151093
lowerneck -11.0077 -7.09439 -2.78857
upperneck -10.1035 -10.2322 12.0279
head -0.52776 -5.73794 4.07338
rclavicle 1.6201e-014 -1.70955e-014
rhumerus 67.2941 4.52118 4.65242
rradius 39.2267
rwrist -56.7687
rhand -43.1797 -7.03337
rfingers 7.12502
rthumb -16.0314 -36.3901
lclavicle 1.6201e-014 -1.70955e-014
lhumerus 64.2024 -9.69206 -11.9269
lradius 31.7734
lwrist 8.07374
lhand -43.9778 12.5833
lfingers 7.12502
lthumb -16.7998 41.8765
rfemur 4.21601 -78.8702 -41.9145
rtibia 157.69
rfoot -58.2912 1.31542
rtoes 8.90651
lfemur -63.4517 54.3942 0.27962
ltibia 159.477
lfoot -46.7411 -30.5669
ltoes 2.07787
